# MagicaVoxel @ Ephtracy

# group
o 

# material
mtllib crossing_piece-1.mtl
usemtl palette

# normals
vn -1 0 0
vn 1 0 0
vn 0 0 1
vn 0 0 -1
vn 0 -1 0
vn 0 1 0

# texcoords
vt 0.958984 0.5
vt 0.970703 0.5
vt 0.974609 0.5
vt 0.978516 0.5
vt 0.982422 0.5
vt 0.986328 0.5

# verts
v -7 0 10
v -7 0 0
v -7 0.2 10
v -7 0.2 0
v 0 0 10
v 0 0 9.8
v 0 0 9.6
v 0 0 0
v 0 0.1 0.400001
v 0 0.1 0.2
v 0 0.2 10
v 0 0.2 9.8
v 0 0.2 9.6
v 0 0.2 0.400001
v 0 0.2 0.2
v 0 0.2 0
v -7 0 10
v -7 0.2 10
v -6 0 10
v -6 0.2 10
v -5.8 0 10
v -5.8 0.2 10
v -5.6 0 10
v -5.6 0.2 10
v -5.2 0 10
v -5.2 0.2 10
v -4.8 0 10
v -4.8 0.2 10
v -4.2 0 10
v -4.2 0.2 10
v -3.8 0 10
v -3.8 0.2 10
v -3.4 0 10
v -3.4 0.2 10
v -3.2 0 10
v -3.2 0.2 10
v -3 0 10
v -3 0.2 10
v -2.8 0 10
v -2.8 0.2 10
v -2.4 0 10
v -2.4 0.2 10
v -2 0 10
v -2 0.2 10
v -1.4 0 10
v -1.4 0.2 10
v -1 0 10
v -1 0.2 10
v -0.6 0 10
v -0.6 0.2 10
v -0.4 0 10
v -0.4 0.2 10
v 0 0 10
v 0 0.2 10
v -7 0 0
v -7 0.2 0
v -6 0 0
v -6 0.2 0
v -5.8 0 0
v -5.8 0.2 0
v -5.6 0 0
v -5.6 0.2 0
v -5.2 0 0
v -5.2 0.2 0
v -4.8 0 0
v -4.8 0.2 0
v -4.2 0 0
v -4.2 0.2 0
v -3.8 0 0
v -3.8 0.2 0
v -3.4 0 0
v -3.4 0.2 0
v -3.2 0 0
v -3.2 0.2 0
v -3 0 0
v -3 0.2 0
v -2.8 0 0
v -2.8 0.2 0
v -2.4 0 0
v -2.4 0.2 0
v -2 0 0
v -2 0.2 0
v -1.4 0 0
v -1.4 0.2 0
v -1 0 0
v -1 0.2 0
v -0.6 0 0
v -0.6 0.2 0
v -0.4 0 0
v -0.4 0.2 0
v 0 0 0
v 0 0.2 0
v -7 0 10
v -6 0 10
v -5.8 0 10
v -5.6 0 10
v -5.2 0 10
v -4.8 0 10
v -4.2 0 10
v -3.8 0 10
v -3.4 0 10
v -3.2 0 10
v -3 0 10
v -2.8 0 10
v -2.4 0 10
v -2 0 10
v -1.4 0 10
v -1 0 10
v -0.6 0 10
v -0.4 0 10
v 0 0 10
v -3.2 0 9.9
v -3 0 9.9
v -5.8 0 9.8
v -5.6 0 9.8
v -5.2 0 9.8
v -4.8 0 9.8
v -4.2 0 9.8
v -3.8 0 9.8
v -3.4 0 9.8
v -3.2 0 9.8
v -3 0 9.8
v -2.8 0 9.8
v -2.4 0 9.8
v -2 0 9.8
v -1.4 0 9.8
v -1 0 9.8
v -0.6 0 9.8
v -0.4 0 9.8
v 0 0 9.8
v -5.8 0 9.6
v -5.6 0 9.6
v -5.2 0 9.6
v -4.8 0 9.6
v -4.2 0 9.6
v -3.8 0 9.6
v -3.4 0 9.6
v -3.2 0 9.6
v -3 0 9.6
v -2.8 0 9.6
v -2.4 0 9.6
v -2 0 9.6
v -1.4 0 9.6
v -1 0 9.6
v -0.6 0 9.6
v -0.4 0 9.6
v 0 0 9.6
v -3.2 0 8.6
v -3 0 8.6
v -3.2 0 6.8
v -3 0 6.8
v -3.2 0 5.4
v -3 0 5.4
v -3.2 0 3.4
v -3 0 3.4
v -3.2 0 2
v -3 0 2
v -7 0 0
v -6 0 0
v -5.8 0 0
v -5.6 0 0
v -5.2 0 0
v -4.8 0 0
v -4.2 0 0
v -3.8 0 0
v -3.4 0 0
v -3.2 0 0
v -3 0 0
v -2.8 0 0
v -2.4 0 0
v -2 0 0
v -1.4 0 0
v -1 0 0
v -0.6 0 0
v -0.4 0 0
v 0 0 0
v -7 0.2 10
v -6 0.2 10
v -5.8 0.2 10
v -5.6 0.2 10
v -5.2 0.2 10
v -4.8 0.2 10
v -4.2 0.2 10
v -3.8 0.2 10
v -3.4 0.2 10
v -3.2 0.2 10
v -3 0.2 10
v -2.8 0.2 10
v -2.4 0.2 10
v -2 0.2 10
v -1.4 0.2 10
v -1 0.2 10
v -0.6 0.2 10
v -0.4 0.2 10
v 0 0.2 10
v -5.8 0.2 9.8
v -5.6 0.2 9.8
v -5.2 0.2 9.8
v -4.8 0.2 9.8
v -4.2 0.2 9.8
v -3.8 0.2 9.8
v -3.4 0.2 9.8
v -3.2 0.2 9.8
v -3 0.2 9.8
v -2.8 0.2 9.8
v -2.4 0.2 9.8
v -2 0.2 9.8
v -1.4 0.2 9.8
v -1 0.2 9.8
v -0.6 0.2 9.8
v -0.4 0.2 9.8
v 0 0.2 9.8
v -5.8 0.2 9.6
v -5.6 0.2 9.6
v -5.2 0.2 9.6
v -4.8 0.2 9.6
v -4.2 0.2 9.6
v -3.8 0.2 9.6
v -3.4 0.2 9.6
v -3.2 0.2 9.6
v -3 0.2 9.6
v -2.8 0.2 9.6
v -2.4 0.2 9.6
v -2 0.2 9.6
v -1.4 0.2 9.6
v -1 0.2 9.6
v -0.6 0.2 9.6
v -0.4 0.2 9.6
v 0 0.2 9.6
v -5.8 0.2 0.400001
v -5.6 0.2 0.400001
v -5.2 0.2 0.400001
v -4.8 0.2 0.400001
v -4.2 0.2 0.400001
v -3.8 0.2 0.400001
v -3.4 0.2 0.400001
v -3.2 0.2 0.400001
v -3 0.2 0.400001
v -2.8 0.2 0.400001
v -2.4 0.2 0.400001
v -2 0.2 0.400001
v -1.4 0.2 0.400001
v -1 0.2 0.400001
v -0.6 0.2 0.400001
v -0.4 0.2 0.400001
v 0 0.2 0.400001
v -5.8 0.2 0.2
v -5.6 0.2 0.2
v -5.2 0.2 0.2
v -4.8 0.2 0.2
v -4.2 0.2 0.2
v -3.8 0.2 0.2
v -3.4 0.2 0.2
v -3.2 0.2 0.2
v -3 0.2 0.2
v -2.8 0.2 0.2
v -2.4 0.2 0.2
v -2 0.2 0.2
v -1.4 0.2 0.2
v -1 0.2 0.2
v -0.6 0.2 0.2
v -0.4 0.2 0.2
v 0 0.2 0.2
v -7 0.2 0
v -6 0.2 0
v -5.8 0.2 0
v -5.6 0.2 0
v -5.2 0.2 0
v -4.8 0.2 0
v -4.2 0.2 0
v -3.8 0.2 0
v -3.4 0.2 0
v -3.2 0.2 0
v -3 0.2 0
v -2.8 0.2 0
v -2.4 0.2 0
v -2 0.2 0
v -1.4 0.2 0
v -1 0.2 0
v -0.6 0.2 0
v -0.4 0.2 0
v 0 0.2 0

# faces
f 3/5/1 2/5/1 1/5/1
f 4/5/1 2/5/1 3/5/1
f 7/6/2 8/6/2 9/6/2
f 9/6/2 8/6/2 10/6/2
f 5/6/2 6/6/2 11/6/2
f 6/1/2 7/1/2 12/1/2
f 11/6/2 6/6/2 12/6/2
f 7/6/2 9/6/2 13/6/2
f 12/1/2 7/1/2 13/1/2
f 9/1/2 10/1/2 14/1/2
f 13/6/2 9/6/2 14/6/2
f 10/6/2 8/6/2 15/6/2
f 14/1/2 10/1/2 15/1/2
f 15/6/2 8/6/2 16/6/2
f 19/5/3 18/5/3 17/5/3
f 20/5/3 18/5/3 19/5/3
f 21/1/3 20/1/3 19/1/3
f 22/1/3 20/1/3 21/1/3
f 23/5/3 22/5/3 21/5/3
f 24/5/3 22/5/3 23/5/3
f 25/4/3 24/4/3 23/4/3
f 26/4/3 24/4/3 25/4/3
f 27/3/3 26/3/3 25/3/3
f 28/3/3 26/3/3 27/3/3
f 29/2/3 28/2/3 27/2/3
f 30/2/3 28/2/3 29/2/3
f 31/3/3 30/3/3 29/3/3
f 32/3/3 30/3/3 31/3/3
f 33/4/3 32/4/3 31/4/3
f 34/4/3 32/4/3 33/4/3
f 35/5/3 34/5/3 33/5/3
f 36/5/3 34/5/3 35/5/3
f 37/6/3 36/6/3 35/6/3
f 38/6/3 36/6/3 37/6/3
f 39/5/3 38/5/3 37/5/3
f 40/5/3 38/5/3 39/5/3
f 41/4/3 40/4/3 39/4/3
f 42/4/3 40/4/3 41/4/3
f 43/3/3 42/3/3 41/3/3
f 44/3/3 42/3/3 43/3/3
f 45/2/3 44/2/3 43/2/3
f 46/2/3 44/2/3 45/2/3
f 47/3/3 46/3/3 45/3/3
f 48/3/3 46/3/3 47/3/3
f 49/4/3 48/4/3 47/4/3
f 50/4/3 48/4/3 49/4/3
f 51/5/3 50/5/3 49/5/3
f 52/5/3 50/5/3 51/5/3
f 53/6/3 52/6/3 51/6/3
f 54/6/3 52/6/3 53/6/3
f 55/5/4 56/5/4 57/5/4
f 57/5/4 56/5/4 58/5/4
f 57/1/4 58/1/4 59/1/4
f 59/1/4 58/1/4 60/1/4
f 59/5/4 60/5/4 61/5/4
f 61/5/4 60/5/4 62/5/4
f 61/4/4 62/4/4 63/4/4
f 63/4/4 62/4/4 64/4/4
f 63/3/4 64/3/4 65/3/4
f 65/3/4 64/3/4 66/3/4
f 65/2/4 66/2/4 67/2/4
f 67/2/4 66/2/4 68/2/4
f 67/3/4 68/3/4 69/3/4
f 69/3/4 68/3/4 70/3/4
f 69/4/4 70/4/4 71/4/4
f 71/4/4 70/4/4 72/4/4
f 71/5/4 72/5/4 73/5/4
f 73/5/4 72/5/4 74/5/4
f 73/6/4 74/6/4 75/6/4
f 75/6/4 74/6/4 76/6/4
f 75/5/4 76/5/4 77/5/4
f 77/5/4 76/5/4 78/5/4
f 77/4/4 78/4/4 79/4/4
f 79/4/4 78/4/4 80/4/4
f 79/3/4 80/3/4 81/3/4
f 81/3/4 80/3/4 82/3/4
f 81/2/4 82/2/4 83/2/4
f 83/2/4 82/2/4 84/2/4
f 83/3/4 84/3/4 85/3/4
f 85/3/4 84/3/4 86/3/4
f 85/4/4 86/4/4 87/4/4
f 87/4/4 86/4/4 88/4/4
f 87/5/4 88/5/4 89/5/4
f 89/5/4 88/5/4 90/5/4
f 89/6/4 90/6/4 91/6/4
f 91/6/4 90/6/4 92/6/4
f 112/5/5 102/5/5 101/5/5
f 112/6/5 103/6/5 102/6/5
f 113/5/5 104/5/5 103/5/5
f 113/6/5 103/6/5 112/6/5
f 114/1/5 95/1/5 94/1/5
f 114/5/5 96/5/5 95/5/5
f 115/4/5 97/4/5 96/4/5
f 115/5/5 96/5/5 114/5/5
f 116/3/5 98/3/5 97/3/5
f 116/4/5 97/4/5 115/4/5
f 117/2/5 99/2/5 98/2/5
f 117/3/5 98/3/5 116/3/5
f 118/3/5 100/3/5 99/3/5
f 118/2/5 99/2/5 117/2/5
f 119/4/5 101/4/5 100/4/5
f 119/3/5 100/3/5 118/3/5
f 120/5/5 112/5/5 101/5/5
f 120/4/5 101/4/5 119/4/5
f 121/1/5 113/1/5 112/1/5
f 121/5/5 112/5/5 120/5/5
f 122/5/5 104/5/5 113/5/5
f 122/1/5 113/1/5 121/1/5
f 123/4/5 105/4/5 104/4/5
f 123/5/5 104/5/5 122/5/5
f 124/3/5 106/3/5 105/3/5
f 124/4/5 105/4/5 123/4/5
f 125/2/5 107/2/5 106/2/5
f 125/3/5 106/3/5 124/3/5
f 126/3/5 108/3/5 107/3/5
f 126/2/5 107/2/5 125/2/5
f 127/4/5 109/4/5 108/4/5
f 127/3/5 108/3/5 126/3/5
f 128/5/5 110/5/5 109/5/5
f 128/4/5 109/4/5 127/4/5
f 129/6/5 111/6/5 110/6/5
f 129/5/5 110/5/5 128/5/5
f 130/6/5 111/6/5 129/6/5
f 131/1/5 121/1/5 120/1/5
f 131/1/5 120/1/5 119/1/5
f 131/1/5 130/1/5 129/1/5
f 131/1/5 129/1/5 128/1/5
f 131/1/5 126/1/5 125/1/5
f 131/1/5 125/1/5 124/1/5
f 131/1/5 124/1/5 123/1/5
f 131/1/5 123/1/5 122/1/5
f 131/1/5 122/1/5 121/1/5
f 131/1/5 119/1/5 118/1/5
f 131/1/5 127/1/5 126/1/5
f 131/1/5 128/1/5 127/1/5
f 131/1/5 118/1/5 117/1/5
f 131/1/5 117/1/5 116/1/5
f 131/1/5 116/1/5 115/1/5
f 131/1/5 115/1/5 114/1/5
f 131/1/5 114/1/5 94/1/5
f 132/1/5 130/1/5 131/1/5
f 133/1/5 130/1/5 132/1/5
f 134/1/5 130/1/5 133/1/5
f 135/1/5 130/1/5 134/1/5
f 136/1/5 130/1/5 135/1/5
f 137/1/5 130/1/5 136/1/5
f 138/1/5 130/1/5 137/1/5
f 139/1/5 130/1/5 138/1/5
f 140/1/5 130/1/5 139/1/5
f 141/1/5 130/1/5 140/1/5
f 142/1/5 130/1/5 141/1/5
f 143/1/5 130/1/5 142/1/5
f 144/1/5 130/1/5 143/1/5
f 145/1/5 130/1/5 144/1/5
f 146/1/5 130/1/5 145/1/5
f 147/1/5 130/1/5 146/1/5
f 148/5/5 138/5/5 137/5/5
f 148/1/5 139/1/5 138/1/5
f 149/5/5 140/5/5 139/5/5
f 149/1/5 139/1/5 148/1/5
f 150/5/5 148/5/5 137/5/5
f 150/6/5 149/6/5 148/6/5
f 151/5/5 140/5/5 149/5/5
f 151/6/5 149/6/5 150/6/5
f 152/5/5 150/5/5 137/5/5
f 152/1/5 151/1/5 150/1/5
f 153/5/5 140/5/5 151/5/5
f 153/1/5 151/1/5 152/1/5
f 154/5/5 152/5/5 137/5/5
f 154/6/5 153/6/5 152/6/5
f 155/5/5 140/5/5 153/5/5
f 155/6/5 153/6/5 154/6/5
f 156/5/5 154/5/5 137/5/5
f 156/1/5 155/1/5 154/1/5
f 157/5/5 140/5/5 155/5/5
f 157/1/5 155/1/5 156/1/5
f 158/5/5 94/5/5 93/5/5
f 159/1/5 131/1/5 94/1/5
f 159/5/5 94/5/5 158/5/5
f 160/5/5 132/5/5 131/5/5
f 160/1/5 131/1/5 159/1/5
f 161/4/5 133/4/5 132/4/5
f 161/5/5 132/5/5 160/5/5
f 162/3/5 134/3/5 133/3/5
f 162/4/5 133/4/5 161/4/5
f 163/2/5 135/2/5 134/2/5
f 163/3/5 134/3/5 162/3/5
f 164/3/5 136/3/5 135/3/5
f 164/2/5 135/2/5 163/2/5
f 165/4/5 137/4/5 136/4/5
f 165/3/5 136/3/5 164/3/5
f 166/5/5 156/5/5 137/5/5
f 166/4/5 137/4/5 165/4/5
f 167/6/5 157/6/5 156/6/5
f 167/5/5 156/5/5 166/5/5
f 168/5/5 140/5/5 157/5/5
f 168/6/5 157/6/5 167/6/5
f 169/4/5 141/4/5 140/4/5
f 169/5/5 140/5/5 168/5/5
f 170/3/5 142/3/5 141/3/5
f 170/4/5 141/4/5 169/4/5
f 171/2/5 143/2/5 142/2/5
f 171/3/5 142/3/5 170/3/5
f 172/3/5 144/3/5 143/3/5
f 172/2/5 143/2/5 171/2/5
f 173/4/5 145/4/5 144/4/5
f 173/3/5 144/3/5 172/3/5
f 174/5/5 146/5/5 145/5/5
f 174/4/5 145/4/5 173/4/5
f 175/6/5 147/6/5 146/6/5
f 175/5/5 146/5/5 174/5/5
f 176/6/5 147/6/5 175/6/5
f 178/1/6 179/1/6 196/1/6
f 179/5/6 180/5/6 196/5/6
f 180/4/6 181/4/6 197/4/6
f 196/5/6 180/5/6 197/5/6
f 181/3/6 182/3/6 198/3/6
f 197/4/6 181/4/6 198/4/6
f 182/2/6 183/2/6 199/2/6
f 198/3/6 182/3/6 199/3/6
f 183/3/6 184/3/6 200/3/6
f 199/2/6 183/2/6 200/2/6
f 184/4/6 185/4/6 201/4/6
f 200/3/6 184/3/6 201/3/6
f 185/5/6 186/5/6 202/5/6
f 201/4/6 185/4/6 202/4/6
f 186/6/6 187/6/6 203/6/6
f 202/5/6 186/5/6 203/5/6
f 187/5/6 188/5/6 204/5/6
f 203/6/6 187/6/6 204/6/6
f 188/4/6 189/4/6 205/4/6
f 204/5/6 188/5/6 205/5/6
f 189/3/6 190/3/6 206/3/6
f 205/4/6 189/4/6 206/4/6
f 190/2/6 191/2/6 207/2/6
f 206/3/6 190/3/6 207/3/6
f 191/3/6 192/3/6 208/3/6
f 207/2/6 191/2/6 208/2/6
f 192/4/6 193/4/6 209/4/6
f 208/3/6 192/3/6 209/3/6
f 193/5/6 194/5/6 210/5/6
f 209/4/6 193/4/6 210/4/6
f 194/6/6 195/6/6 211/6/6
f 210/5/6 194/5/6 211/5/6
f 211/6/6 195/6/6 212/6/6
f 209/1/6 210/1/6 213/1/6
f 208/1/6 209/1/6 213/1/6
f 211/1/6 212/1/6 213/1/6
f 210/1/6 211/1/6 213/1/6
f 207/1/6 208/1/6 213/1/6
f 206/1/6 207/1/6 213/1/6
f 205/1/6 206/1/6 213/1/6
f 204/1/6 205/1/6 213/1/6
f 203/1/6 204/1/6 213/1/6
f 202/1/6 203/1/6 213/1/6
f 201/1/6 202/1/6 213/1/6
f 200/1/6 201/1/6 213/1/6
f 199/1/6 200/1/6 213/1/6
f 198/1/6 199/1/6 213/1/6
f 197/1/6 198/1/6 213/1/6
f 196/1/6 197/1/6 213/1/6
f 178/1/6 196/1/6 213/1/6
f 213/1/6 212/1/6 214/1/6
f 214/1/6 212/1/6 215/1/6
f 215/1/6 212/1/6 216/1/6
f 216/1/6 212/1/6 217/1/6
f 217/1/6 212/1/6 218/1/6
f 218/1/6 212/1/6 219/1/6
f 219/1/6 212/1/6 220/1/6
f 220/1/6 212/1/6 221/1/6
f 221/1/6 212/1/6 222/1/6
f 222/1/6 212/1/6 223/1/6
f 223/1/6 212/1/6 224/1/6
f 224/1/6 212/1/6 225/1/6
f 225/1/6 212/1/6 226/1/6
f 226/1/6 212/1/6 227/1/6
f 227/1/6 212/1/6 228/1/6
f 228/1/6 212/1/6 229/1/6
f 178/1/6 213/1/6 230/1/6
f 213/5/6 214/5/6 230/5/6
f 214/4/6 215/4/6 231/4/6
f 230/5/6 214/5/6 231/5/6
f 215/3/6 216/3/6 232/3/6
f 231/4/6 215/4/6 232/4/6
f 216/2/6 217/2/6 233/2/6
f 232/3/6 216/3/6 233/3/6
f 217/3/6 218/3/6 234/3/6
f 233/2/6 217/2/6 234/2/6
f 218/4/6 219/4/6 235/4/6
f 234/3/6 218/3/6 235/3/6
f 219/5/6 220/5/6 236/5/6
f 235/4/6 219/4/6 236/4/6
f 220/6/6 221/6/6 237/6/6
f 236/5/6 220/5/6 237/5/6
f 221/5/6 222/5/6 238/5/6
f 237/6/6 221/6/6 238/6/6
f 222/4/6 223/4/6 239/4/6
f 238/5/6 222/5/6 239/5/6
f 223/3/6 224/3/6 240/3/6
f 239/4/6 223/4/6 240/4/6
f 224/2/6 225/2/6 241/2/6
f 240/3/6 224/3/6 241/3/6
f 225/3/6 226/3/6 242/3/6
f 241/2/6 225/2/6 242/2/6
f 226/4/6 227/4/6 243/4/6
f 242/3/6 226/3/6 243/3/6
f 227/5/6 228/5/6 244/5/6
f 243/4/6 227/4/6 244/4/6
f 228/6/6 229/6/6 245/6/6
f 244/5/6 228/5/6 245/5/6
f 245/6/6 229/6/6 246/6/6
f 243/1/6 244/1/6 247/1/6
f 178/1/6 230/1/6 247/1/6
f 245/1/6 246/1/6 247/1/6
f 244/1/6 245/1/6 247/1/6
f 242/1/6 243/1/6 247/1/6
f 241/1/6 242/1/6 247/1/6
f 240/1/6 241/1/6 247/1/6
f 239/1/6 240/1/6 247/1/6
f 238/1/6 239/1/6 247/1/6
f 237/1/6 238/1/6 247/1/6
f 236/1/6 237/1/6 247/1/6
f 235/1/6 236/1/6 247/1/6
f 234/1/6 235/1/6 247/1/6
f 233/1/6 234/1/6 247/1/6
f 232/1/6 233/1/6 247/1/6
f 231/1/6 232/1/6 247/1/6
f 230/1/6 231/1/6 247/1/6
f 247/1/6 246/1/6 248/1/6
f 248/1/6 246/1/6 249/1/6
f 249/1/6 246/1/6 250/1/6
f 250/1/6 246/1/6 251/1/6
f 251/1/6 246/1/6 252/1/6
f 252/1/6 246/1/6 253/1/6
f 253/1/6 246/1/6 254/1/6
f 254/1/6 246/1/6 255/1/6
f 255/1/6 246/1/6 256/1/6
f 256/1/6 246/1/6 257/1/6
f 257/1/6 246/1/6 258/1/6
f 258/1/6 246/1/6 259/1/6
f 259/1/6 246/1/6 260/1/6
f 260/1/6 246/1/6 261/1/6
f 261/1/6 246/1/6 262/1/6
f 262/1/6 246/1/6 263/1/6
f 177/5/6 178/5/6 264/5/6
f 178/1/6 247/1/6 265/1/6
f 264/5/6 178/5/6 265/5/6
f 247/5/6 248/5/6 266/5/6
f 265/1/6 247/1/6 266/1/6
f 248/4/6 249/4/6 267/4/6
f 266/5/6 248/5/6 267/5/6
f 249/3/6 250/3/6 268/3/6
f 267/4/6 249/4/6 268/4/6
f 250/2/6 251/2/6 269/2/6
f 268/3/6 250/3/6 269/3/6
f 251/3/6 252/3/6 270/3/6
f 269/2/6 251/2/6 270/2/6
f 252/4/6 253/4/6 271/4/6
f 270/3/6 252/3/6 271/3/6
f 253/5/6 254/5/6 272/5/6
f 271/4/6 253/4/6 272/4/6
f 254/6/6 255/6/6 273/6/6
f 272/5/6 254/5/6 273/5/6
f 255/5/6 256/5/6 274/5/6
f 273/6/6 255/6/6 274/6/6
f 256/4/6 257/4/6 275/4/6
f 274/5/6 256/5/6 275/5/6
f 257/3/6 258/3/6 276/3/6
f 275/4/6 257/4/6 276/4/6
f 258/2/6 259/2/6 277/2/6
f 276/3/6 258/3/6 277/3/6
f 259/3/6 260/3/6 278/3/6
f 277/2/6 259/2/6 278/2/6
f 260/4/6 261/4/6 279/4/6
f 278/3/6 260/3/6 279/3/6
f 261/5/6 262/5/6 280/5/6
f 279/4/6 261/4/6 280/4/6
f 262/6/6 263/6/6 281/6/6
f 280/5/6 262/5/6 281/5/6
f 281/6/6 263/6/6 282/6/6
