# MagicaVoxel @ Ephtracy

# group
o 

# material
mtllib road_only-1.mtl
usemtl palette

# normals
vn -1 0 0
vn 1 0 0
vn 0 0 1
vn 0 0 -1
vn 0 -1 0
vn 0 1 0

# texcoords
vt 0.873047 0.5
vt 0.958984 0.5
vt 0.970703 0.5
vt 0.974609 0.5
vt 0.978516 0.5
vt 0.982422 0.5
vt 0.986328 0.5

# verts
v -7 0 10
v -7 0 0
v -7 0.2 10
v -7 0.2 0
v 0 0 10
v 0 0 0
v 0 0.2 10
v 0 0.2 0
v -7 0 10
v -7 0.2 10
v -6.2 0 10
v -6.2 0.2 10
v -6 0 10
v -6 0.2 10
v -5.8 0 10
v -5.8 0.2 10
v -5.6 0 10
v -5.6 0.2 10
v -5.2 0 10
v -5.2 0.2 10
v -4.8 0 10
v -4.8 0.2 10
v -4.2 0 10
v -4.2 0.2 10
v -3.8 0 10
v -3.8 0.2 10
v -3.4 0 10
v -3.4 0.2 10
v -3.2 0 10
v -3.2 0.2 10
v -3 0 10
v -3 0.2 10
v -2.8 0 10
v -2.8 0.2 10
v -2.4 0 10
v -2.4 0.2 10
v -2 0 10
v -2 0.2 10
v -1.4 0 10
v -1.4 0.2 10
v -1 0 10
v -1 0.2 10
v -0.6 0 10
v -0.6 0.2 10
v -0.4 0 10
v -0.4 0.2 10
v -0.2 0 10
v -0.2 0.2 10
v 0 0 10
v 0 0.2 10
v -7 0 0
v -7 0.2 0
v -6.2 0 0
v -6.2 0.2 0
v -6 0 0
v -6 0.2 0
v -5.8 0 0
v -5.8 0.2 0
v -5.6 0 0
v -5.6 0.2 0
v -5.2 0 0
v -5.2 0.2 0
v -4.8 0 0
v -4.8 0.2 0
v -4.2 0 0
v -4.2 0.2 0
v -3.8 0 0
v -3.8 0.2 0
v -3.4 0 0
v -3.4 0.2 0
v -3.2 0 0
v -3.2 0.2 0
v -3 0 0
v -3 0.2 0
v -2.8 0 0
v -2.8 0.2 0
v -2.4 0 0
v -2.4 0.2 0
v -2 0 0
v -2 0.2 0
v -1.4 0 0
v -1.4 0.2 0
v -1 0 0
v -1 0.2 0
v -0.6 0 0
v -0.6 0.2 0
v -0.4 0 0
v -0.4 0.2 0
v -0.2 0 0
v -0.2 0.2 0
v 0 0 0
v 0 0.2 0
v -7 0 10
v -6.2 0 10
v -6 0 10
v -5.8 0 10
v -5.6 0 10
v -5.2 0 10
v -4.8 0 10
v -4.2 0 10
v -3.8 0 10
v -3.4 0 10
v -3.2 0 10
v -3 0 10
v -2.8 0 10
v -2.4 0 10
v -2 0 10
v -1.4 0 10
v -1 0 10
v -0.6 0 10
v -0.4 0 10
v -0.2 0 10
v 0 0 10
v -3.2 0 8.6
v -3 0 8.6
v -3.2 0 6.8
v -3 0 6.8
v -3.2 0 5.4
v -3 0 5.4
v -3.2 0 3.4
v -3 0 3.4
v -3.2 0 2
v -3 0 2
v -7 0 0
v -6.2 0 0
v -6 0 0
v -5.8 0 0
v -5.6 0 0
v -5.2 0 0
v -4.8 0 0
v -4.2 0 0
v -3.8 0 0
v -3.4 0 0
v -3.2 0 0
v -3 0 0
v -2.8 0 0
v -2.4 0 0
v -2 0 0
v -1.4 0 0
v -1 0 0
v -0.6 0 0
v -0.4 0 0
v -0.2 0 0
v 0 0 0
v -7 0.2 10
v -6.2 0.2 10
v -6 0.2 10
v -5.8 0.2 10
v -5.6 0.2 10
v -5.2 0.2 10
v -4.8 0.2 10
v -4.2 0.2 10
v -3.8 0.2 10
v -3.4 0.2 10
v -3.2 0.2 10
v -3 0.2 10
v -2.8 0.2 10
v -2.4 0.2 10
v -2 0.2 10
v -1.4 0.2 10
v -1 0.2 10
v -0.6 0.2 10
v -0.4 0.2 10
v -0.2 0.2 10
v 0 0.2 10
v -3.2 0.2 8.6
v -3 0.2 8.6
v -3.2 0.2 6.8
v -3 0.2 6.8
v -3.2 0.2 5.4
v -3 0.2 5.4
v -3.2 0.2 3.4
v -3 0.2 3.4
v -3.2 0.2 2
v -3 0.2 2
v -7 0.2 0
v -6.2 0.2 0
v -6 0.2 0
v -5.8 0.2 0
v -5.6 0.2 0
v -5.2 0.2 0
v -4.8 0.2 0
v -4.2 0.2 0
v -3.8 0.2 0
v -3.4 0.2 0
v -3.2 0.2 0
v -3 0.2 0
v -2.8 0.2 0
v -2.4 0.2 0
v -2 0.2 0
v -1.4 0.2 0
v -1 0.2 0
v -0.6 0.2 0
v -0.4 0.2 0
v -0.2 0.2 0
v 0 0.2 0

# faces
f 3/1/1 2/1/1 1/1/1
f 4/1/1 2/1/1 3/1/1
f 5/7/2 6/7/2 7/7/2
f 7/7/2 6/7/2 8/7/2
f 11/1/3 10/1/3 9/1/3
f 12/1/3 10/1/3 11/1/3
f 13/6/3 12/6/3 11/6/3
f 14/6/3 12/6/3 13/6/3
f 15/2/3 14/2/3 13/2/3
f 16/2/3 14/2/3 15/2/3
f 17/6/3 16/6/3 15/6/3
f 18/6/3 16/6/3 17/6/3
f 19/5/3 18/5/3 17/5/3
f 20/5/3 18/5/3 19/5/3
f 21/4/3 20/4/3 19/4/3
f 22/4/3 20/4/3 21/4/3
f 23/3/3 22/3/3 21/3/3
f 24/3/3 22/3/3 23/3/3
f 25/4/3 24/4/3 23/4/3
f 26/4/3 24/4/3 25/4/3
f 27/5/3 26/5/3 25/5/3
f 28/5/3 26/5/3 27/5/3
f 29/6/3 28/6/3 27/6/3
f 30/6/3 28/6/3 29/6/3
f 31/2/3 30/2/3 29/2/3
f 32/2/3 30/2/3 31/2/3
f 33/6/3 32/6/3 31/6/3
f 34/6/3 32/6/3 33/6/3
f 35/5/3 34/5/3 33/5/3
f 36/5/3 34/5/3 35/5/3
f 37/4/3 36/4/3 35/4/3
f 38/4/3 36/4/3 37/4/3
f 39/3/3 38/3/3 37/3/3
f 40/3/3 38/3/3 39/3/3
f 41/4/3 40/4/3 39/4/3
f 42/4/3 40/4/3 41/4/3
f 43/5/3 42/5/3 41/5/3
f 44/5/3 42/5/3 43/5/3
f 45/6/3 44/6/3 43/6/3
f 46/6/3 44/6/3 45/6/3
f 47/2/3 46/2/3 45/2/3
f 48/2/3 46/2/3 47/2/3
f 49/7/3 48/7/3 47/7/3
f 50/7/3 48/7/3 49/7/3
f 51/1/4 52/1/4 53/1/4
f 53/1/4 52/1/4 54/1/4
f 53/6/4 54/6/4 55/6/4
f 55/6/4 54/6/4 56/6/4
f 55/2/4 56/2/4 57/2/4
f 57/2/4 56/2/4 58/2/4
f 57/6/4 58/6/4 59/6/4
f 59/6/4 58/6/4 60/6/4
f 59/5/4 60/5/4 61/5/4
f 61/5/4 60/5/4 62/5/4
f 61/4/4 62/4/4 63/4/4
f 63/4/4 62/4/4 64/4/4
f 63/3/4 64/3/4 65/3/4
f 65/3/4 64/3/4 66/3/4
f 65/4/4 66/4/4 67/4/4
f 67/4/4 66/4/4 68/4/4
f 67/5/4 68/5/4 69/5/4
f 69/5/4 68/5/4 70/5/4
f 69/6/4 70/6/4 71/6/4
f 71/6/4 70/6/4 72/6/4
f 71/7/4 72/7/4 73/7/4
f 73/7/4 72/7/4 74/7/4
f 73/6/4 74/6/4 75/6/4
f 75/6/4 74/6/4 76/6/4
f 75/5/4 76/5/4 77/5/4
f 77/5/4 76/5/4 78/5/4
f 77/4/4 78/4/4 79/4/4
f 79/4/4 78/4/4 80/4/4
f 79/3/4 80/3/4 81/3/4
f 81/3/4 80/3/4 82/3/4
f 81/4/4 82/4/4 83/4/4
f 83/4/4 82/4/4 84/4/4
f 83/5/4 84/5/4 85/5/4
f 85/5/4 84/5/4 86/5/4
f 85/6/4 86/6/4 87/6/4
f 87/6/4 86/6/4 88/6/4
f 87/2/4 88/2/4 89/2/4
f 89/2/4 88/2/4 90/2/4
f 89/7/4 90/7/4 91/7/4
f 91/7/4 90/7/4 92/7/4
f 114/6/5 103/6/5 102/6/5
f 114/2/5 104/2/5 103/2/5
f 115/6/5 105/6/5 104/6/5
f 115/2/5 104/2/5 114/2/5
f 116/6/5 114/6/5 102/6/5
f 116/7/5 115/7/5 114/7/5
f 117/6/5 105/6/5 115/6/5
f 117/7/5 115/7/5 116/7/5
f 118/6/5 116/6/5 102/6/5
f 118/2/5 117/2/5 116/2/5
f 119/6/5 105/6/5 117/6/5
f 119/2/5 117/2/5 118/2/5
f 120/6/5 118/6/5 102/6/5
f 120/7/5 119/7/5 118/7/5
f 121/6/5 105/6/5 119/6/5
f 121/7/5 119/7/5 120/7/5
f 122/6/5 120/6/5 102/6/5
f 122/2/5 121/2/5 120/2/5
f 123/6/5 105/6/5 121/6/5
f 123/2/5 121/2/5 122/2/5
f 124/1/5 94/1/5 93/1/5
f 125/6/5 95/6/5 94/6/5
f 125/1/5 94/1/5 124/1/5
f 126/2/5 96/2/5 95/2/5
f 126/6/5 95/6/5 125/6/5
f 127/6/5 97/6/5 96/6/5
f 127/2/5 96/2/5 126/2/5
f 128/5/5 98/5/5 97/5/5
f 128/6/5 97/6/5 127/6/5
f 129/4/5 99/4/5 98/4/5
f 129/5/5 98/5/5 128/5/5
f 130/3/5 100/3/5 99/3/5
f 130/4/5 99/4/5 129/4/5
f 131/4/5 101/4/5 100/4/5
f 131/3/5 100/3/5 130/3/5
f 132/5/5 102/5/5 101/5/5
f 132/4/5 101/4/5 131/4/5
f 133/6/5 122/6/5 102/6/5
f 133/5/5 102/5/5 132/5/5
f 134/7/5 123/7/5 122/7/5
f 134/6/5 122/6/5 133/6/5
f 135/6/5 105/6/5 123/6/5
f 135/7/5 123/7/5 134/7/5
f 136/5/5 106/5/5 105/5/5
f 136/6/5 105/6/5 135/6/5
f 137/4/5 107/4/5 106/4/5
f 137/5/5 106/5/5 136/5/5
f 138/3/5 108/3/5 107/3/5
f 138/4/5 107/4/5 137/4/5
f 139/4/5 109/4/5 108/4/5
f 139/3/5 108/3/5 138/3/5
f 140/5/5 110/5/5 109/5/5
f 140/4/5 109/4/5 139/4/5
f 141/6/5 111/6/5 110/6/5
f 141/5/5 110/5/5 140/5/5
f 142/2/5 112/2/5 111/2/5
f 142/6/5 111/6/5 141/6/5
f 143/7/5 113/7/5 112/7/5
f 143/2/5 112/2/5 142/2/5
f 144/7/5 113/7/5 143/7/5
f 154/6/6 155/6/6 166/6/6
f 155/2/6 156/2/6 166/2/6
f 156/6/6 157/6/6 167/6/6
f 166/2/6 156/2/6 167/2/6
f 154/6/6 166/6/6 168/6/6
f 166/7/6 167/7/6 168/7/6
f 167/6/6 157/6/6 169/6/6
f 168/7/6 167/7/6 169/7/6
f 154/6/6 168/6/6 170/6/6
f 168/2/6 169/2/6 170/2/6
f 169/6/6 157/6/6 171/6/6
f 170/2/6 169/2/6 171/2/6
f 154/6/6 170/6/6 172/6/6
f 170/7/6 171/7/6 172/7/6
f 171/6/6 157/6/6 173/6/6
f 172/7/6 171/7/6 173/7/6
f 154/6/6 172/6/6 174/6/6
f 172/2/6 173/2/6 174/2/6
f 173/6/6 157/6/6 175/6/6
f 174/2/6 173/2/6 175/2/6
f 145/1/6 146/1/6 176/1/6
f 146/6/6 147/6/6 177/6/6
f 176/1/6 146/1/6 177/1/6
f 147/2/6 148/2/6 178/2/6
f 177/6/6 147/6/6 178/6/6
f 148/6/6 149/6/6 179/6/6
f 178/2/6 148/2/6 179/2/6
f 149/5/6 150/5/6 180/5/6
f 179/6/6 149/6/6 180/6/6
f 150/4/6 151/4/6 181/4/6
f 180/5/6 150/5/6 181/5/6
f 151/3/6 152/3/6 182/3/6
f 181/4/6 151/4/6 182/4/6
f 152/4/6 153/4/6 183/4/6
f 182/3/6 152/3/6 183/3/6
f 153/5/6 154/5/6 184/5/6
f 183/4/6 153/4/6 184/4/6
f 154/6/6 174/6/6 185/6/6
f 184/5/6 154/5/6 185/5/6
f 174/7/6 175/7/6 186/7/6
f 185/6/6 174/6/6 186/6/6
f 175/6/6 157/6/6 187/6/6
f 186/7/6 175/7/6 187/7/6
f 157/5/6 158/5/6 188/5/6
f 187/6/6 157/6/6 188/6/6
f 158/4/6 159/4/6 189/4/6
f 188/5/6 158/5/6 189/5/6
f 159/3/6 160/3/6 190/3/6
f 189/4/6 159/4/6 190/4/6
f 160/4/6 161/4/6 191/4/6
f 190/3/6 160/3/6 191/3/6
f 161/5/6 162/5/6 192/5/6
f 191/4/6 161/4/6 192/4/6
f 162/6/6 163/6/6 193/6/6
f 192/5/6 162/5/6 193/5/6
f 163/2/6 164/2/6 194/2/6
f 193/6/6 163/6/6 194/6/6
f 164/7/6 165/7/6 195/7/6
f 194/2/6 164/2/6 195/2/6
f 195/7/6 165/7/6 196/7/6
